<svg height="512pt" viewBox="0 0 512 512" width="512pt" xmlns="http://www.w3.org/2000/svg"><path d="m503.464844 229.941406v256c-.027344 9.414063-7.652344 17.039063-17.066406 17.066406h-25.597657c9.414063-.027343 17.039063-7.652343 17.066407-17.066406v-256c-.027344-7.761718-5.285157-14.527344-12.800782-16.46875 1.382813-.414062 2.824219-.613281 4.265625-.597656h17.066407c9.414062.027344 17.039062 7.652344 17.066406 17.066406zm0 0" fill="#37474f"/><path d="m110.933594 212.875h51.199218c9.425782 0 17.066407 7.640625 17.066407 17.066406v51.199219c0 9.425781-7.640625 17.066406-17.066407 17.066406h-51.199218c-9.425782 0-17.066406-7.640625-17.066406-17.066406v-51.199219c0-9.425781 7.640624-17.066406 17.066406-17.066406zm0 0" fill="#f44335"/><path d="m110.933594 332.34375h51.199218c9.425782 0 17.066407 7.640625 17.066407 17.066406v51.199219c0 9.425781-7.640625 17.066406-17.066407 17.066406h-51.199218c-9.425782 0-17.066406-7.640625-17.066406-17.066406v-51.199219c0-9.425781 7.640624-17.066406 17.066406-17.066406zm0 0" fill="#e91e63"/><path d="m230.398438 332.34375h51.203124c9.425782 0 17.066407 7.640625 17.066407 17.066406v51.199219c0 9.425781-7.640625 17.066406-17.066407 17.066406h-51.203124c-9.425782 0-17.066407-7.640625-17.066407-17.066406v-51.199219c0-9.425781 7.640625-17.066406 17.066407-17.066406zm0 0" fill="#f44335"/><path d="m349.867188 212.875h51.199218c9.425782 0 17.066406 7.640625 17.066406 17.066406v51.199219c0 9.425781-7.640624 17.066406-17.066406 17.066406h-51.199218c-9.425782 0-17.066407-7.640625-17.066407-17.066406v-51.199219c0-9.425781 7.640625-17.066406 17.066407-17.066406zm0 0" fill="#c52828"/><path d="m349.867188 332.34375h51.199218c9.425782 0 17.066406 7.640625 17.066406 17.066406v51.199219c0 9.425781-7.640624 17.066406-17.066406 17.066406h-51.199218c-9.425782 0-17.066407-7.640625-17.066407-17.066406v-51.199219c0-9.425781 7.640625-17.066406 17.066407-17.066406zm0 0" fill="#ad1457"/><path d="m477.867188 229.941406v256c-.027344 9.414063-7.652344 17.039063-17.066407 17.066406h-435.199219c-9.414062-.027343-17.039062-7.652343-17.066406-17.066406v-256c.023438-7.761718 5.28125-14.527344 12.796875-16.46875 1.386719-.414062 2.824219-.613281 4.269531-.597656h17.066407c9.414062.027344 17.039062 7.652344 17.066406 17.066406v204.800782c.027344 9.414062 7.652344 17.039062 17.066406 17.066406h358.398438c9.414062-.027344 17.039062-7.652344 17.066406-17.066406v-204.800782c.027344-7.761718 5.285156-14.527344 12.800781-16.46875 7.515625 1.941406 12.773438 8.707032 12.800782 16.46875zm0 0" fill="#607d8b"/><path d="m349.867188 212.875h25.597656c9.425781 0 17.070312 7.640625 17.070312 17.066406v51.199219c0 9.425781-7.644531 17.066406-17.070312 17.066406h-25.597656c-9.425782 0-17.066407-7.640625-17.066407-17.066406v-51.199219c0-9.425781 7.640625-17.066406 17.066407-17.066406zm0 0" fill="#f44335"/><path d="m349.867188 332.34375h25.597656c9.425781 0 17.070312 7.640625 17.070312 17.066406v51.199219c0 9.425781-7.644531 17.066406-17.070312 17.066406h-25.597656c-9.425782 0-17.066407-7.640625-17.066407-17.066406v-51.199219c0-9.425781 7.640625-17.066406 17.066407-17.066406zm0 0" fill="#e91e63"/><path d="m256 49.292969v112.382812c-.027344 9.414063-7.652344 17.039063-17.066406 17.066407h-112.382813c-6.898437.003906-13.121093-4.140626-15.769531-10.503907-2.652344-6.367187-1.210938-13.703125 3.652344-18.59375l112.46875-112.46875c4.890625-4.863281 12.226562-6.304687 18.59375-3.652343 6.363281 2.652343 10.507812 8.871093 10.503906 15.769531zm0 0" fill="#f57c00"/><path d="m231.9375 49.292969v112.382812c-.03125 9.414063-7.652344 17.039063-17.066406 17.066407h-88.320313c-6.898437.003906-13.121093-4.140626-15.769531-10.503907-2.652344-6.367187-1.210938-13.703125 3.652344-18.59375l112.46875-112.46875c3.265625 3.175781 5.085937 7.558594 5.035156 12.117188zm0 0" fill="#f29c1f"/><path d="m143.53125 120.546875-52.738281-52.738281c-6.660157-6.664063-6.660157-17.46875 0-24.132813l30.140625-30.140625c6.664062-6.660156 17.46875-6.660156 24.132812 0l52.734375 52.738282" fill="#ff9801"/><path d="m486.398438 204.34375h-17.066407c-14.136719 0-25.597656 11.460938-25.597656 25.597656v204.800782c0 4.714843-3.820313 8.535156-8.535156 8.535156h-358.398438c-4.714843 0-8.535156-3.820313-8.535156-8.535156v-204.800782c0-14.136718-11.460937-25.597656-25.597656-25.597656h-17.066407c-14.140624 0-25.601562 11.460938-25.601562 25.597656v256c0 14.140625 11.460938 25.601563 25.601562 25.601563h460.796876c14.140624 0 25.601562-11.460938 25.601562-25.601563v-256c0-14.136718-11.460938-25.597656-25.601562-25.597656zm8.535156 281.597656c0 4.714844-3.820313 8.535156-8.535156 8.535156h-460.796876c-4.714843 0-8.535156-3.820312-8.535156-8.535156v-256c0-4.710937 3.820313-8.53125 8.535156-8.53125h17.066407c4.710937 0 8.53125 3.820313 8.53125 8.53125v204.800782c0 14.136718 11.460937 25.601562 25.601562 25.601562h358.398438c14.140625 0 25.601562-11.464844 25.601562-25.601562v-204.800782c0-4.710937 3.820313-8.53125 8.53125-8.53125h17.066407c4.714843 0 8.535156 3.820313 8.535156 8.53125zm0 0"/><path d="m187.734375 229.941406c0-14.136718-11.460937-25.597656-25.601563-25.597656h-51.199218c-14.140625 0-25.601563 11.460938-25.601563 25.597656v51.199219c0 14.140625 11.460938 25.601563 25.601563 25.601563h51.199218c14.140626 0 25.601563-11.460938 25.601563-25.601563zm-17.066406 51.199219c0 4.714844-3.820313 8.535156-8.535157 8.535156h-51.199218c-4.714844 0-8.535156-3.820312-8.535156-8.535156v-51.199219c0-4.710937 3.820312-8.53125 8.535156-8.53125h51.199218c4.714844 0 8.535157 3.820313 8.535157 8.53125zm0 0"/><path d="m162.132812 323.808594h-51.199218c-14.140625 0-25.601563 11.460937-25.601563 25.601562v51.199219c0 14.136719 11.460938 25.597656 25.601563 25.597656h51.199218c14.140626 0 25.601563-11.460937 25.601563-25.597656v-51.199219c0-14.140625-11.460937-25.601562-25.601563-25.601562zm8.535157 76.800781c0 4.710937-3.820313 8.53125-8.535157 8.53125h-51.199218c-4.714844 0-8.535156-3.820313-8.535156-8.53125v-51.199219c0-4.714844 3.820312-8.535156 8.535156-8.535156h51.199218c4.714844 0 8.535157 3.820312 8.535157 8.535156zm0 0"/><path d="m230.398438 426.207031h51.203124c14.136719 0 25.597657-11.460937 25.597657-25.597656v-51.199219c0-14.140625-11.460938-25.601562-25.597657-25.601562h-51.203124c-14.136719 0-25.597657 11.460937-25.597657 25.601562v51.199219c0 14.136719 11.460938 25.597656 25.597657 25.597656zm-8.53125-76.796875c0-4.714844 3.820312-8.535156 8.53125-8.535156h51.203124c4.710938 0 8.53125 3.820312 8.53125 8.535156v51.199219c0 4.710937-3.820312 8.53125-8.53125 8.53125h-51.203124c-4.710938 0-8.53125-3.820313-8.53125-8.53125zm0 0"/><path d="m426.667969 229.941406c0-14.136718-11.460938-25.597656-25.601563-25.597656h-51.199218c-14.140626 0-25.601563 11.460938-25.601563 25.597656v51.199219c0 14.140625 11.460937 25.601563 25.601563 25.601563h51.199218c14.140625 0 25.601563-11.460938 25.601563-25.601563zm-17.066407 51.199219c0 4.714844-3.820312 8.535156-8.535156 8.535156h-51.199218c-4.714844 0-8.535157-3.820312-8.535157-8.535156v-51.199219c0-4.710937 3.820313-8.53125 8.535157-8.53125h51.199218c4.714844 0 8.535156 3.820313 8.535156 8.53125zm0 0"/><path d="m401.066406 323.808594h-51.199218c-14.140626 0-25.601563 11.460937-25.601563 25.601562v51.199219c0 14.136719 11.460937 25.597656 25.601563 25.597656h51.199218c14.140625 0 25.601563-11.460937 25.601563-25.597656v-51.199219c0-14.140625-11.460938-25.601562-25.601563-25.601562zm8.535156 76.800781c0 4.710937-3.820312 8.53125-8.535156 8.53125h-51.199218c-4.714844 0-8.535157-3.820313-8.535157-8.53125v-51.199219c0-4.714844 3.820313-8.535156 8.535157-8.535156h51.199218c4.714844 0 8.535156 3.820312 8.535156 8.535156zm0 0"/><path d="m264.535156 161.675781v-112.382812c.011719-10.351563-6.207031-19.695313-15.765625-23.671875-9.554687-3.980469-20.566406-1.808594-27.902343 5.496094l-23.039063 23.039062-46.726563-46.660156c-10-9.996094-26.203124-9.996094-36.199218 0l-30.140625 30.148437c-9.992188 9.996094-9.992188 26.199219 0 36.199219l46.703125 46.703125-23.039063 23.039063c-7.316406 7.324218-9.5 18.335937-5.535156 27.898437 3.96875 9.5625 13.304687 15.796875 23.660156 15.792969h112.382813c14.136718 0 25.601562-11.464844 25.601562-25.601563zm-145.921875 3.242188c-1.355469-3.164063-.625-6.835938 1.835938-9.242188l29.097656-29.097656c3.332031-3.332031 3.332031-8.734375 0-12.066406l-52.726563-52.734375c-3.332031-3.332032-3.332031-8.734375 0-12.066406l30.136719-30.140626c3.335938-3.332031 8.734375-3.332031 12.066407 0l52.738281 52.734376c3.332031 3.332031 8.734375 3.332031 12.066406 0l29.097656-29.097657c2.449219-2.429687 6.121094-3.144531 9.300781-1.8125 3.183594 1.332031 5.25 4.449219 5.238282 7.898438v112.382812c0 4.710938-3.820313 8.53125-8.53125 8.53125h-112.382813c-3.488281.054688-6.644531-2.050781-7.9375-5.289062zm0 0"/><path d="m221.867188 110.476562c-4.714844 0-8.535157 3.820313-8.535157 8.53125v17.066407h-17.066406c-4.710937 0-8.53125 3.820312-8.53125 8.535156 0 4.710937 3.820313 8.53125 8.53125 8.53125h17.066406c9.425781 0 17.066407-7.640625 17.066407-17.066406v-17.066407c0-4.710937-3.820313-8.53125-8.53125-8.53125zm0 0"/></svg>