<svg height="512pt" viewBox="-26 0 512 512" width="512pt" xmlns="http://www.w3.org/2000/svg"><path d="m341.332031 55.464844v38.402344c0 7.070312-5.730469 12.800781-12.796875 12.800781h-21.335937v-.769531c5.101562-1.804688 8.519531-6.621094 8.535156-12.03125v-38.402344c0-23.5625-19.105469-42.664063-42.667969-42.664063h25.601563c23.5625 0 42.664062 19.101563 42.664062 42.664063zm0 0" fill="#283593"/><path d="m315.734375 55.464844v38.402344c-.015625 5.410156-3.433594 10.226562-8.535156 12.03125v-46.164063c0-7.070313-5.730469-12.800781-12.800781-12.800781h-119.464844c-7.070313 0-12.800782 5.730468-12.800782 12.800781v46.933594h-21.332031c-1.457031.007812-2.90625-.253907-4.265625-.769531-5.105468-1.804688-8.519531-6.621094-8.535156-12.03125v-38.402344c0-23.5625 19.101562-42.664063 42.667969-42.664063h102.398437c23.5625 0 42.667969 19.101563 42.667969 42.664063zm0 0" fill="#3f51b5"/><path d="m409.601562 119.464844v341.335937c0 23.5625-19.105468 42.664063-42.667968 42.664063h-273.066406c-23.566407 0-42.667969-19.101563-42.667969-42.664063v-341.335937zm0 0" fill="#283593"/><path d="m384 119.464844v341.335937c0 11.316407-4.496094 22.167969-12.496094 30.167969-8.003906 8.003906-18.855468 12.496094-30.171875 12.496094h-247.464843c-23.566407 0-42.667969-19.101563-42.667969-42.664063v-341.335937zm0 0" fill="#3f51b5"/><path d="m98.132812 153.601562h264.535157c7.066406 0 12.796875 5.730469 12.796875 12.796876v290.136718c0 7.066406-5.730469 12.796875-12.796875 12.796875h-264.535157c-7.070312 0-12.800781-5.730469-12.800781-12.796875v-290.136718c0-7.066407 5.730469-12.796876 12.800781-12.796876zm0 0" fill="#37474f"/><path d="m98.132812 153.601562h238.933594c7.070313 0 12.800782 5.730469 12.800782 12.796876v290.136718c0 7.066406-5.730469 12.796875-12.800782 12.796875h-238.933594c-7.070312 0-12.800781-5.730469-12.800781-12.796875v-290.136718c0-7.066407 5.730469-12.796876 12.800781-12.796876zm0 0" fill="#607d8b"/><path d="m132.265625 187.734375h25.601563c7.070312 0 12.800781 5.730469 12.800781 12.800781v221.863282c0 7.070312-5.730469 12.800781-12.800781 12.800781h-25.601563c-7.066406 0-12.800781-5.730469-12.800781-12.800781v-221.863282c0-7.070312 5.734375-12.800781 12.800781-12.800781zm0 0" fill="#283593"/><path d="m145.066406 200.535156v221.863282c0 7.070312-5.730468 12.800781-12.800781 12.800781-7.066406 0-12.800781-5.730469-12.800781-12.800781v-221.863282c0-7.070312 5.734375-12.800781 12.800781-12.800781 7.070313 0 12.800781 5.730469 12.800781 12.800781zm0 0" fill="#3f51b5"/><path d="m217.601562 187.734375h25.597657c7.070312 0 12.800781 5.730469 12.800781 12.800781v221.863282c0 7.070312-5.730469 12.800781-12.800781 12.800781h-25.597657c-7.070312 0-12.800781-5.730469-12.800781-12.800781v-221.863282c0-7.070312 5.730469-12.800781 12.800781-12.800781zm0 0" fill="#283593"/><path d="m230.398438 200.535156v221.863282c0 7.070312-5.730469 12.800781-12.796876 12.800781-7.070312 0-12.800781-5.730469-12.800781-12.800781v-221.863282c0-7.070312 5.730469-12.800781 12.800781-12.800781 7.066407 0 12.796876 5.730469 12.796876 12.800781zm0 0" fill="#3f51b5"/><path d="m302.933594 187.734375h25.601562c7.066406 0 12.796875 5.730469 12.796875 12.800781v221.863282c0 7.070312-5.730469 12.800781-12.796875 12.800781h-25.601562c-7.070313 0-12.800782-5.730469-12.800782-12.800781v-221.863282c0-7.070312 5.730469-12.800781 12.800782-12.800781zm0 0" fill="#283593"/><path d="m315.734375 200.535156v221.863282c0 7.070312-5.730469 12.800781-12.800781 12.800781-7.070313 0-12.800782-5.730469-12.800782-12.800781v-221.863282c0-7.070312 5.730469-12.800781 12.800782-12.800781 7.070312 0 12.800781 5.730469 12.800781 12.800781zm0 0" fill="#3f51b5"/><path d="m21.332031 85.332031h418.132813c7.070312 0 12.800781 5.730469 12.800781 12.800781v8.535157c0 7.066406-5.730469 12.796875-12.800781 12.796875h-418.132813c-7.066406 0-12.796875-5.730469-12.796875-12.796875v-8.535157c0-7.070312 5.730469-12.800781 12.796875-12.800781zm0 0" fill="#37474f"/><path d="m21.332031 85.332031h384c7.070313 0 12.800781 5.730469 12.800781 12.800781v8.535157c0 7.066406-5.730468 12.796875-12.800781 12.796875h-384c-7.066406 0-12.796875-5.730469-12.796875-12.796875v-8.535157c0-7.070312 5.730469-12.800781 12.796875-12.800781zm0 0" fill="#607d8b"/><path d="m98.132812 477.867188h264.535157c5.65625 0 11.082031-2.25 15.082031-6.25 4.003906-4 6.25-9.425782 6.25-15.082032v-290.136718c0-5.65625-2.246094-11.082032-6.25-15.082032-4-4.003906-9.425781-6.25-15.082031-6.25h-264.535157c-11.78125 0-21.332031 9.550782-21.332031 21.332032v290.136718c0 11.78125 9.550781 21.332032 21.332031 21.332032zm-4.265624-311.46875c0-2.355469 1.910156-4.265626 4.265624-4.265626h264.535157c2.355469 0 4.265625 1.910157 4.265625 4.265626v290.136718c0 2.355469-1.910156 4.265625-4.265625 4.265625h-264.535157c-2.355468 0-4.265624-1.910156-4.265624-4.265625zm0 0"/><path d="m132.265625 443.734375h25.601563c5.65625 0 11.082031-2.25 15.085937-6.25 4-4 6.246094-9.425781 6.246094-15.085937v-221.863282c0-5.660156-2.246094-11.085937-6.246094-15.085937-4.003906-4-9.429687-6.25-15.085937-6.25h-25.601563c-11.78125 0-21.332031 9.550781-21.332031 21.335937v221.863282c0 11.785156 9.550781 21.335937 21.332031 21.335937zm-4.265625-243.199219c0-2.359375 1.910156-4.269531 4.265625-4.269531h25.601563c2.355468 0 4.265624 1.910156 4.265624 4.269531v221.863282c0 2.359374-1.910156 4.269531-4.265624 4.269531h-25.601563c-2.355469 0-4.265625-1.910157-4.265625-4.269531zm0 0"/><path d="m217.601562 443.734375h25.597657c11.78125 0 21.335937-9.550781 21.335937-21.335937v-221.863282c0-11.785156-9.554687-21.335937-21.335937-21.335937h-25.597657c-11.785156 0-21.335937 9.550781-21.335937 21.335937v221.863282c0 11.785156 9.550781 21.335937 21.335937 21.335937zm-4.269531-243.199219c0-2.359375 1.910157-4.269531 4.269531-4.269531h25.597657c2.355469 0 4.265625 1.910156 4.265625 4.269531v221.863282c0 2.359374-1.910156 4.269531-4.265625 4.269531h-25.597657c-2.359374 0-4.269531-1.910157-4.269531-4.269531zm0 0"/><path d="m302.933594 443.734375h25.601562c11.78125 0 21.332032-9.550781 21.332032-21.335937v-221.863282c0-11.785156-9.550782-21.335937-21.332032-21.335937h-25.601562c-11.78125 0-21.332032 9.550781-21.332032 21.335937v221.863282c0 11.785156 9.550782 21.335937 21.332032 21.335937zm-4.265625-243.199219c0-2.359375 1.910156-4.269531 4.265625-4.269531h25.601562c2.355469 0 4.265625 1.910156 4.265625 4.269531v221.863282c0 2.359374-1.910156 4.269531-4.265625 4.269531h-25.601562c-2.355469 0-4.265625-1.910157-4.265625-4.269531zm0 0"/><path d="m349.867188 72.535156v-21.335937c-.027344-28.265625-22.933594-51.1718752-51.199219-51.199219h-128c-28.265625.0273438-51.171875 22.933594-51.203125 51.199219v21.335937c.003906 1.429688.148437 2.859375.4375 4.265625h-98.570313c-11.78125 0-21.332031 9.550781-21.332031 21.332031v8.535157c0 11.78125 9.550781 21.332031 21.332031 21.332031h21.335938v332.800781c.027343 28.265625 22.933593 51.171875 51.199219 51.199219h273.066406c28.265625-.027344 51.171875-22.933594 51.199218-51.199219v-332.800781h21.332032c11.785156 0 21.335937-9.550781 21.335937-21.332031v-8.535157c0-11.78125-9.550781-21.332031-21.335937-21.332031h-90.035156c.289062-1.40625.4375-2.835937.4375-4.265625zm-213.332032 0v-21.335937c0-18.851563 15.28125-34.132813 34.132813-34.132813h128c18.851562 0 34.132812 15.28125 34.132812 34.132813v21.335937c0 2.355469-1.910156 4.265625-4.265625 4.265625h-12.800781v-21.335937c0-11.78125-9.550781-21.332032-21.335937-21.332032h-119.464844c-11.78125 0-21.332032 9.550782-21.332032 21.332032v21.335937h-12.800781c-2.355469 0-4.265625-1.910156-4.265625-4.265625zm34.132813 4.265625v-21.335937c0-2.355469 1.910156-4.265625 4.265625-4.265625h119.464844c2.359374 0 4.269531 1.910156 4.269531 4.265625v21.335937zm230.398437 384c0 18.851563-15.28125 34.132813-34.132812 34.132813h-273.066406c-18.851563 0-34.132813-15.28125-34.132813-34.132813v-332.800781h341.332031zm42.667969-362.667969v8.535157c0 2.355469-1.910156 4.265625-4.269531 4.265625h-418.132813c-2.355469 0-4.265625-1.910156-4.265625-4.265625v-8.535157c0-2.355468 1.910156-4.265624 4.265625-4.265624h418.132813c2.359375 0 4.269531 1.910156 4.269531 4.265624zm0 0"/></svg>