<svg id="_x33_0" enable-background="new 0 0 64 64" height="512" viewBox="0 0 64 64" width="512" xmlns="http://www.w3.org/2000/svg"><g><g><g><path d="m61 2h-18c-.55 0-1 .45-1 1v7 9c0 .55.45 1 1 1h18c.55 0 1-.45 1-1v-16c0-.55-.45-1-1-1z" fill="#e6e9ed"/></g><g><path d="m48 10c0-2.21 1.79-4 4-4s4 1.79 4 4z" fill="#656d78"/></g><g><path d="m58 20h-6v-2l3.12-3.12c.41.24.79.54 1.12.88 1.09 1.08 1.76 2.58 1.76 4.24z" fill="#b4dd7f"/></g><g><path d="m52 20h-6c0-2.17 1.15-4.07 2.88-5.12l3.12 3.12z" fill="#b4dd7f"/></g><g><path d="m52 14c1.15 0 2.21.32 3.12.88l-3.12 3.12-3.12-3.12c.91-.56 1.97-.88 3.12-.88z" fill="#f0d0b4"/></g><g><path d="m48 10h8c0 2.21-1.79 4-4 4s-4-1.79-4-4z" fill="#f0d0b4"/></g><g><path d="m22 30v15c0 .55-.45 1-1 1h-18c-.55 0-1-.45-1-1v-22c0-.55.45-1 1-1h9 9c.55 0 1 .45 1 1z" fill="#e6e9ed"/></g><g><path d="m6 34v-2c0-1.66.67-3.16 1.76-4.24 1.08-1.09 2.58-1.76 4.24-1.76 3.31 0 6 2.69 6 6v4c0 1.66-.67 3.16-1.76 4.24-1.08 1.09-2.58 1.76-4.24 1.76-3.31 0-6-2.69-6-6z" fill="#f0d0b4"/></g><g><path d="m16.9 6.55c.7.97 1.1 2.16 1.1 3.45 0 3.31-2.69 6-6 6s-6-2.69-6-6 2.69-6 6-6c2.03 0 3.82 1.01 4.9 2.55z" fill="#ff826e"/></g><g><path d="m50 30c0 2.61-1.67 4.83-4 5.66v-3.66c0-1.1-.9-2-2-2-.55 0-1.05.22-1.41.59-.37.36-.59.86-.59 1.41v3.66c-2.33-.83-4-3.05-4-5.66 0-3.31 2.69-6 6-6s6 2.69 6 6z" fill="#ff826e"/></g><g><path d="m38 58h17v4h-17z" fill="#fcd770"/></g><g><path d="m50 40c0-.55.22-1.05.59-1.41.36-.37.86-.59 1.41-.59 1.1 0 2 .9 2 2v2c0-.55.22-1.05.59-1.41.36-.37.86-.59 1.41-.59 1.1 0 2 .9 2 2v5.17c0 1.91-.26 3.79-.76 5.62-.51 1.82-1.26 3.57-2.24 5.21h-17c-2.59-3.24-4-7.26-4-11.4v-7.6c0-.55.45-1 1-1 1.66 0 3 1.34 3 3v4c0 .55.22 1.05.59 1.41.36.37.86.59 1.41.59 1.1 0 2-.9 2-2v-9.34-3.66c0-.55.22-1.05.59-1.41.36-.37.86-.59 1.41-.59 1.1 0 2 .9 2 2v3.66 2.34c0-.55.22-1.05.59-1.41.36-.37.86-.59 1.41-.59 1.1 0 2 .9 2 2z" fill="#f0d0b4"/></g></g><g><path d="m61 1h-18c-1.103 0-2 .897-2 2v6h-22.08c-.12-.835-.381-1.626-.769-2.339l3.592-3.992-1.486-1.338-3.331 3.701c-1.266-1.255-3.007-2.032-4.926-2.032-3.86 0-7 3.14-7 7 0 3.519 2.613 6.432 6 6.92v4.08h-8c-1.103 0-2 .897-2 2v22c0 1.103.897 2 2 2h18c1.103 0 2-.897 2-2v-14h14.079c.334 2.306 1.809 4.298 3.921 5.305v8.695c0 .551-.449 1-1 1s-1-.449-1-1v-4c0-2.206-1.794-4-4-4-1.103 0-2 .897-2 2v7.597c0 4.237 1.418 8.395 4 11.749v4.654h19v-4.727c1.963-3.369 3-7.203 3-11.104v-5.169c0-1.654-1.346-3-3-3-.395 0-.77.081-1.116.22-.345-1.275-1.501-2.22-2.884-2.22-.395 0-.77.081-1.116.22-.28-1.032-1.091-1.839-2.127-2.111 1.391-1.299 2.243-3.128 2.243-5.109 0-3.86-3.14-7-7-7-3.519 0-6.432 2.613-6.92 6h-14.08v-6c0-1.103-.897-2-2-2h-8v-4.08c3.059-.441 5.48-2.861 5.92-5.92h22.08v8c0 1.103.897 2 2 2h18c1.103 0 2-.897 2-2v-16c0-1.103-.897-2-2-2zm-22 60v-2h15v2zm10-15h2v-6c0-.551.449-1 1-1s1 .449 1 1v6h2v-4c0-.551.449-1 1-1s1 .449 1 1v5.169c0 3.447-.9 6.831-2.588 9.831h-15.906c-2.257-2.985-3.506-6.656-3.506-10.403v-7.597c1.103 0 2 .897 2 2v4c0 1.654 1.346 3 3 3s3-1.346 3-3v-13c0-.551.449-1 1-1s1 .449 1 1v14h2v-8c0-.551.449-1 1-1s1 .449 1 1zm-5-21c2.757 0 5 2.243 5 5 0 1.599-.766 3.07-2 3.998v-1.998c0-1.654-1.346-3-3-3s-3 1.346-3 3v1.998c-1.234-.928-2-2.399-2-3.998 0-2.757 2.243-5 5-5zm-22.999 20h-18.001v-22h18zm-9.001-30c-2.757 0-5-2.243-5-5s2.243-5 5-5c1.406 0 2.673.588 3.582 1.525l-3.62 4.022-2.255-2.254-1.414 1.414 3.745 3.746 4.643-5.159c.195.535.319 1.104.319 1.706 0 2.757-2.243 5-5 5zm37.184-4h5.631c-.414 1.161-1.514 2-2.816 2s-2.401-.839-2.815-2zm0-2c.414-1.161 1.514-2 2.816-2s2.402.839 2.816 2zm2.816 6c.479 0 .932.089 1.371.215l-1.371 1.371-1.371-1.371c.439-.126.892-.215 1.371-.215zm1 3.414 2.213-2.213c.841.712 1.458 1.68 1.686 2.799h-3.899zm-4.213-2.213 2.213 2.213v.586h-3.899c.228-1.119.845-2.087 1.686-2.799zm12.213 2.799h-2.08c-.327-2.269-1.74-4.188-3.699-5.208 1.079-.918 1.779-2.268 1.779-3.792 0-2.757-2.243-5-5-5s-5 2.243-5 5c0 1.524.7 2.874 1.779 3.792-1.959 1.021-3.372 2.94-3.699 5.208h-2.08l-.001-16h.001 18z"/><path d="m12 43c3.86 0 7-3.14 7-7v-4c0-3.86-3.14-7-7-7s-7 3.14-7 7v4c0 3.86 3.14 7 7 7zm-5-11c0-2.757 2.243-5 5-5s5 2.243 5 5v4c0 2.757-2.243 5-5 5-1.892 0-3.542-1.056-4.391-2.609.711.388 1.526.609 2.391.609 2.757 0 5-2.243 5-5v-2c0-1.654-1.346-3-3-3s-3 1.346-3 3v3h2v-3c0-.551.449-1 1-1s1 .449 1 1v2c0 1.654-1.346 3-3 3s-3-1.346-3-3z"/></g></g></svg>