<svg id="_x33_0" enable-background="new 0 0 64 64" height="512" viewBox="0 0 64 64" width="512" xmlns="http://www.w3.org/2000/svg"><g><g><g><path d="m35 56h18v6h-18z" fill="#fcd770"/></g><g><path d="m53 16c-.83 0-1.58.34-2.12.88s-.88 1.29-.88 2.12v-1-3c0-1.66-1.34-3-3-3-.83 0-1.58.34-2.12.88s-.88 1.29-.88 2.12v-1-3c0-.83-.34-1.58-.88-2.12s-1.29-.88-2.12-.88c-1.66 0-3 1.34-3 3v4c0-.83-.34-1.58-.88-2.12s-1.29-.88-2.12-.88c-1.66 0-3 1.34-3 3v10.19.01c-.92-.75-2.1-1.2-3.38-1.2h-.09c-1.41 0-2.53 1.13-2.53 2.51v.01c0 .32.06.63.18.93 1.2 3.01 1.82 6.21 1.82 9.45v5.5c0 5.4 2.61 10.46 7 13.6h18c1.97-3.95 3-8.3 3-12.71v-11.29-10-3c0-1.66-1.34-3-3-3z" fill="#f0d0b4"/></g><g><circle cx="60" cy="12" fill="#ff826e" r="2"/></g><g><circle cx="56" cy="4" fill="#ff826e" r="2"/></g><g><circle cx="28" cy="8" fill="#ff826e" r="2"/></g><g><path d="m22 8v18h-8-12v-24h20z" fill="#e6e9ed"/></g><g><path d="m6 14v-2c0-1.66.67-3.16 1.76-4.24 1.08-1.09 2.58-1.76 4.24-1.76 3.31 0 6 2.69 6 6v4c0 1.66-.67 3.16-1.76 4.24-1.08 1.09-2.58 1.76-4.24 1.76-3.31 0-6-2.69-6-6z" fill="#f0d0b4"/></g><g><path d="m2 34h22v28h-22z" fill="#e6e9ed"/></g><g><path d="m12.24 44.3-.01.01-2.34.94c-1.14.45-1.89 1.55-1.89 2.78v.97c0 .34.03.68.1 1l-1.38-2.68c-.47-.91-.72-1.92-.72-2.95 0-3.55 2.88-6.44 6.44-6.44h1.12c1.78 0 3.39.72 4.56 1.89 1.16 1.16 1.88 2.78 1.88 4.55 0 1.03-.25 2.04-.72 2.95l-1.38 2.68c.07-.32.1-.66.1-1v-1.31c0-.97-.71-1.81-1.67-1.97l-1.95-.32c-.83-.14-1.57-.53-2.14-1.1z" fill="#b27946"/></g><g><path d="m6.31 56.47 3.69 5.53h-8c0-2.64 1.8-4.9 4.31-5.53z" fill="#b4dd7f"/></g><g><path d="m13 58 3 4h-6z" fill="#b4dd7f"/></g><g><path d="m24 62h-8l3.69-5.53c2.51.63 4.31 2.89 4.31 5.53z" fill="#b4dd7f"/></g><g><path d="m16 55.93 3.04.41c.22.03.44.07.65.13l-3.69 5.53-3-4c1.23 0 2.35-.69 2.89-1.79l.11-.21z" fill="#a0d468"/></g><g><path d="m13 58-3 4-3.69-5.53c.21-.06.43-.1.65-.13l3.04-.41v.07l.11.21c.54 1.1 1.66 1.79 2.89 1.79z" fill="#a0d468"/></g><g><path d="m16 55.93v.07l-.11.21c-.54 1.1-1.66 1.79-2.89 1.79s-2.35-.69-2.89-1.79l-.11-.21v-.07l.81-2.43c.66.32 1.4.5 2.19.5s1.53-.18 2.19-.5z" fill="#f0d0b4"/></g><g><path d="m17.9 50c-.31 1.54-1.33 2.82-2.71 3.5-.66.32-1.4.5-2.19.5s-1.53-.18-2.19-.5l-1.35-.96c-.68-.68-1.16-1.56-1.36-2.54-.07-.32-.1-.66-.1-1v-.97c0-1.23.75-2.33 1.89-2.78l2.34-.94.01-.01c.57.57 1.31.96 2.14 1.1l1.95.32c.96.16 1.67 1 1.67 1.97v1.31c0 .34-.03.68-.1 1z" fill="#f0d0b4"/></g></g><g><path d="m60 9c-1.302 0-2.402.839-2.816 2h-4.184v4c-.732 0-1.409.212-2 .556v-.556c0-2.206-1.794-4-4-4-.732 0-1.409.212-2 .556v-.556c0-1.474-.81-2.75-2-3.444v-2.556h10.184c.414 1.161 1.514 2 2.816 2 1.654 0 3-1.346 3-3s-1.346-3-3-3c-1.302 0-2.402.839-2.816 2h-12.184v4c-2.206 0-4 1.794-4 4v.556c-.591-.344-1.268-.556-2-.556v-4h-4.184c-.414-1.161-1.514-2-2.816-2s-2.402.839-2.816 2h-2.184v-6h-22v26h12v6h-12v30h24v-30h-10v-6h8v-18h2.184c.414 1.161 1.514 2 2.816 2s2.402-.839 2.816-2h2.184v2.556c-1.19.694-2 1.97-2 3.444v8.48c-.759-.308-1.592-.48-2.471-.48-1.946 0-3.529 1.577-3.529 3.516 0 .446.084.885.251 1.306 1.16 2.901 1.749 5.955 1.749 9.078v5.497c0 5.535 2.607 10.77 7 14.107v6.496h20v-6.767c1.963-4.009 3-8.478 3-12.941v-24.292c0-1.474-.81-2.75-2-3.444v-2.556h2.184c.414 1.161 1.514 2 2.816 2 1.654 0 3-1.346 3-3s-1.346-3-3-3zm-4-6c.552 0 1 .448 1 1s-.448 1-1 1-1-.448-1-1 .448-1 1-1zm-48.625 43.341c-.244-.627-.375-1.298-.375-1.971 0-2.997 2.438-5.436 5.436-5.436h1.129c2.997 0 5.436 2.438 5.436 5.436 0 .656-.122 1.31-.354 1.924-.425-.805-1.199-1.4-2.152-1.558l-1.954-.326c-1.099-.183-2.001-.953-2.354-2.011l-.238-.715-1.896.633.238.715c.097.291.219.568.362.831l-1.138.455c-.971.387-1.721 1.12-2.14 2.023zm1.625 1.69c0-.822.493-1.552 1.257-1.856l1.786-.715c.627.467 1.366.788 2.168.922l1.954.326c.483.08.835.495.835.986v1.304c0 2.206-1.794 4.001-4 4.002-2.206-.001-4-1.796-4-4.002zm11.089 9.637c1.41.59 2.462 1.831 2.792 3.332h-5.013zm-4.137 2.602-1.225-1.634c.756-.335 1.397-.895 1.849-1.616l1.417.188zm-1.952.73h-2l1-1.334zm-1.002-6h.004c.541 0 1.063-.079 1.561-.214l.362 1.087c-.398.692-1.118 1.127-1.925 1.127s-1.527-.435-1.925-1.128l.362-1.087c.498.136 1.02.215 1.561.215zm-3.574 2.02c.453.72 1.094 1.28 1.849 1.616l-1.225 1.634-2.04-3.061zm-3.513.648 2.221 3.332h-5.013c.33-1.501 1.381-2.742 2.792-3.332zm17.089-.432c-1.009-.999-2.333-1.688-3.824-1.887l-2.425-.323-.36-1.081c1.213-.835 2.101-2.104 2.447-3.581l1.334-2.581c.541-1.05.828-2.23.828-3.413 0-4.1-3.336-7.436-7.436-7.436h-1.129c-4.099.001-7.435 3.337-7.435 7.436 0 1.183.287 2.363.829 3.413l1.334 2.581c.346 1.477 1.234 2.746 2.447 3.581l-.36 1.081-2.425.323c-1.492.198-2.816.887-3.825 1.887v-22.236h20zm-2-32.236h-18v-22h18zm7-16c-.552 0-1-.448-1-1s.448-1 1-1 1 .448 1 1-.448 1-1 1zm25 8c1.103 0 2 .897 2 2v2h-2v2h2v8h-4v-12c0-1.103.897-2 2-2zm-6-4c1.103 0 2 .897 2 2v2h-2v2h2v4h-2v2h2v6h-4v-16c0-1.103.897-2 2-2zm-8-2c0-1.103.897-2 2-2s2 .897 2 2v2h-2v2h2v4h-2v2h2v10h-.528c-1.163 0-2.326.104-3.472.308zm-6 4c0-1.103.897-2 2-2s2 .897 2 2v2h-2v2h2v4h-2v2h2v6.774c-.679.193-1.346.425-2 .688v-3.081c0-1.816-.766-3.453-2-4.616zm3 46v-4h16v4zm16.362-6h-17.026c-3.971-2.957-6.336-7.641-6.336-12.603v-5.497c0-3.378-.637-6.683-1.891-9.819-.072-.183-.109-.373-.109-.566 0-.835.687-1.515 1.619-1.515 2.286 0 4.146 1.765 4.342 4h-1.961v2h2v4.535l.445.297c1.727 1.151 2.955 2.895 3.459 4.909l.126.502 1.939-.486-.126-.501c-.566-2.27-1.88-4.259-3.722-5.674 2.304-1.033 4.828-1.582 7.351-1.582h12.528v10.292c0 4.031-.917 8.062-2.638 11.708zm7.638-42c-.552 0-1-.448-1-1s.448-1 1-1 1 .448 1 1-.448 1-1 1z"/><path d="m12 23c3.859 0 7-3.141 7-7v-4c0-3.859-3.141-7-7-7s-7 3.141-7 7v4c0 3.859 3.141 7 7 7zm-5-11c0-2.757 2.243-5 5-5s5 2.243 5 5v4c0 2.757-2.243 5-5 5-1.892 0-3.541-1.056-4.391-2.609.711.388 1.526.609 2.391.609 2.757 0 5-2.243 5-5v-2c0-1.654-1.346-3-3-3s-3 1.346-3 3v3h2v-3c0-.552.448-1 1-1s1 .448 1 1v2c0 1.654-1.346 3-3 3s-3-1.346-3-3z"/></g></g></svg>