<svg id="Capa_1" enable-background="new 0 0 512 512" height="512" viewBox="0 0 512 512" width="512" xmlns="http://www.w3.org/2000/svg"><g><g><g><path d="m73.767 280.042v83.636c0 4.575 3.708 8.283 8.283 8.283h149.1c4.575 0 8.283 3.708 8.283 8.283v46.33h33.133v-46.33c0-4.575 3.708-8.283 8.283-8.283h149.1c4.575 0 8.283-3.709 8.283-8.283v-83.636h-33.132v50.503c0 4.575-3.709 8.283-8.283 8.283h-115.967c-4.575 0-8.283-3.708-8.283-8.283v-50.503h-33.133v50.503c0 4.575-3.709 8.283-8.283 8.283h-115.968c-4.575 0-8.283-3.708-8.283-8.283v-50.503z" fill="#edf6ff"/><g><g><ellipse cx="256" cy="454.8" fill="#c1e3a0" rx="49.7" ry="49.7" transform="matrix(.16 -.987 .987 .16 -233.934 634.644)"/><circle cx="256" cy="454.8" fill="#edf6ff" r="16.567"/></g><path d="m256 405.1c-3.96 0-7.807.477-11.5 1.352 21.901 5.191 38.2 24.86 38.2 48.348s-16.299 43.157-38.2 48.348c3.693.875 7.54 1.352 11.5 1.352 27.449 0 49.7-22.251 49.7-49.7s-22.251-49.7-49.7-49.7z" fill="#a8d4a4"/></g></g><g><g><path d="m338.833 280.85v-41.417c0-27.449-22.251-49.7-49.7-49.7h-66.267c-27.448 0-49.7 22.251-49.7 49.7v41.417c0 4.575 3.709 8.283 8.283 8.283h149.1c4.576 0 8.284-3.708 8.284-8.283z" fill="#e27f84"/></g><path d="m289.133 189.733h-23c27.449 0 49.7 22.251 49.7 49.7v41.417c0 4.575-3.708 8.283-8.284 8.283h23c4.575 0 8.284-3.708 8.284-8.283v-41.417c0-27.448-22.251-49.7-49.7-49.7z" fill="#c9646d"/><g><path d="m245.867 161.082h20.267v43h-20.267z" fill="#f2cdbe"/><path d="m305.7 140.033c0 27.731-22.712 50.158-50.55 49.693-27.251-.455-48.85-23.257-48.85-50.511v-48.882c0-18.299 14.834-33.133 33.133-33.133h33.133c18.299 0 33.133 14.834 33.133 33.133v49.7z" fill="#f2cdbe"/><path d="m305.7 140.033c0 27.731-22.712 50.158-50.55 49.693-27.251-.455-48.85-23.257-48.85-50.511v-48.882c0-18.299 14.834-33.133 33.133-33.133h33.133c18.299 0 33.133 14.834 33.133 33.133v49.7z" fill="#f6e2c1"/><path d="m272.566 57.2h-23c18.299 0 33.133 14.834 33.133 33.133v49.7c0 23.466-16.265 43.13-38.135 48.343 3.404.817 6.942 1.289 10.586 1.35 27.837.465 50.549-21.962 50.549-49.693v-49.7c.001-18.299-14.833-33.133-33.133-33.133z" fill="#f2d0ac"/></g><path d="m289.018 43.422c.077-.92.116-1.85.116-2.789-.001-18.299-14.835-33.133-33.134-33.133s-33.133 14.834-33.133 33.133c0 .939.039 1.869.116 2.789v6.852h66.151z" fill="#ffe07d"/><path d="m289.133 40.633c0-18.299-14.834-33.133-33.133-33.133-4.044 0-7.917.727-11.5 2.053 12.63 4.675 21.633 16.825 21.633 31.08 0 .939-.039 1.869-.116 2.789l.116 6.852h23l-.116-6.852c.077-.919.116-1.849.116-2.789z" fill="#f1cb86"/><path d="m272.567 40.633h-33.133c-27.449 0-49.7 22.251-49.7 49.7v8.283c0 4.575 3.708 8.283 8.283 8.283h24.85c14.892 0 27.482-9.827 31.657-23.349.202-.654.792-1.11 1.477-1.11.685 0 1.275.456 1.477 1.11 4.174 13.521 16.765 23.349 31.657 23.349h24.85c4.575 0 8.283-3.709 8.283-8.283v-8.283c-.001-27.448-22.253-49.7-49.701-49.7z" fill="#ffe07d"/><path d="m272.567 40.633h-23c27.448 0 49.7 22.251 49.7 49.7v8.283c0 4.575-3.708 8.283-8.283 8.283h23c4.575 0 8.283-3.709 8.283-8.283v-8.283c0-27.448-22.252-49.7-49.7-49.7z" fill="#f1cb86"/><path d="m278.089 222.867-5.522 66.266h-33.134l-5.522-66.266v-33.134h44.178z" fill="#d8e2f3"/><g fill="#edf6ff"><path d="m294.651 223.823 11.047-31.251c-5.182-1.832-10.755-2.839-16.565-2.839h-33.133l23.949 35.924c3.786 5.678 12.428 4.6 14.702-1.834z"/><path d="m206.302 192.572 11.047 31.251c2.274 6.434 10.917 7.512 14.702 1.834l23.949-35.924h-33.133c-5.81 0-11.383 1.007-16.565 2.839z"/></g></g><g><path d="m411.533 151.667h20.267v43h-20.267z" fill="#f2cdbe"/><path d="m504.5 222.867c0-27.449-22.251-49.7-49.7-49.7h-66.267c-27.448 0-49.7 22.251-49.7 49.7v49.7c0 9.15 7.417 16.567 16.567 16.567h132.533c9.15 0 16.567-7.417 16.567-16.567z" fill="#c9dbfd"/><g><path d="m438.233 222.867 7.648 44.62c.389 3.113-1.014 6.179-3.625 7.92l-15.996 10.664c-2.782 1.855-6.407 1.855-9.19 0l-15.996-10.664c-2.611-1.74-4.014-4.806-3.625-7.92l7.648-44.62v-3.7h33.119z" fill="#e27f84"/></g><path d="m443.756 206.3-5.523 16.567h-33.133l-5.522-16.567v-33.133h44.178z" fill="#c9646d"/><path d="m471.367 50.275v73.192c0 27.731-22.712 50.158-50.55 49.693-27.251-.455-48.85-23.257-48.85-50.511v-72.374z" fill="#f6e2c1"/><path d="m448.367 50.275v73.192c0 23.466-16.265 43.13-38.135 48.343 3.404.817 6.942 1.289 10.586 1.35 27.837.465 50.55-21.962 50.55-49.693v-73.192z" fill="#f2d0ac"/><path d="m446.517 24.067h-49.7c-18.299 0-33.133 14.834-33.133 33.133v24.85c0 4.575 3.709 8.283 8.283 8.283 16.03 0 29.401-11.383 32.471-26.508.783-3.856 4.173-6.626 8.107-6.626h18.244c3.935 0 7.325 2.77 8.107 6.626 3.069 15.124 16.441 26.508 32.471 26.508 4.575 0 8.283-3.709 8.283-8.283v-24.85c0-18.299-14.834-33.133-33.133-33.133z" fill="#817d84"/><path d="m446.517 24.067h-23c18.299 0 33.133 14.834 33.133 33.133v24.85c0 1.546-.431 2.988-1.168 4.226 4.717 2.583 10.128 4.058 15.885 4.058 4.575 0 8.283-3.709 8.283-8.283v-24.851c0-18.299-14.834-33.133-33.133-33.133z" fill="#756e79"/><path d="m454.8 173.167h-23c27.449 0 49.7 22.251 49.7 49.7v49.7c0 9.15-7.417 16.567-16.567 16.567h23c9.15 0 16.567-7.417 16.567-16.567v-49.7c0-27.449-22.251-49.7-49.7-49.7z" fill="#aecafc"/><g fill="#edf6ff"><path d="m371.969 176.005 11.047 31.251c2.274 6.434 10.917 7.512 14.702 1.834l23.949-35.924h-33.133c-5.81.001-11.383 1.007-16.565 2.839z"/><path d="m454.8 173.167h-33.133l23.949 35.924c3.785 5.678 12.428 4.6 14.702-1.834l11.047-31.251c-5.183-1.833-10.755-2.839-16.565-2.839z"/></g></g><g><path d="m80.2 151.667h20.267v43h-20.267z" fill="#f2cdbe"/><path d="m173.167 222.867c0-27.449-22.251-49.7-49.7-49.7h-66.267c-27.449 0-49.7 22.251-49.7 49.7v49.7c0 9.15 7.417 16.567 16.567 16.567h132.533c9.149 0 16.567-7.417 16.567-16.567z" fill="#c1e3a0"/><g><path d="m106.9 222.867 7.648 44.62c.389 3.113-1.014 6.179-3.625 7.92l-15.995 10.663c-2.782 1.855-6.407 1.855-9.189 0l-15.996-10.664c-2.61-1.74-4.014-4.806-3.625-7.92l7.648-44.62v-3.7h33.119z" fill="#ffe07d"/></g><path d="m112.422 206.3-5.522 16.567h-33.133l-5.523-16.567v-33.133h44.178z" fill="#f1cb86"/><path d="m140.033 50.275v73.192c0 27.731-22.712 50.158-50.55 49.693-27.251-.455-48.85-23.257-48.85-50.511v-72.374z" fill="#f6e2c1"/><path d="m117.033 50.275v73.192c0 23.466-16.265 43.13-38.135 48.343 3.404.817 6.942 1.289 10.586 1.35 27.837.465 50.55-21.962 50.55-49.693v-73.192z" fill="#f2d0ac"/><path d="m123.467 173.167h-23c27.449 0 49.7 22.251 49.7 49.7v49.7c0 9.15-7.417 16.567-16.567 16.567h23c9.149 0 16.567-7.417 16.567-16.567v-49.7c0-27.449-22.252-49.7-49.7-49.7z" fill="#a8d4a4"/><path d="m40.635 176.005 11.047 31.251c2.274 6.434 10.917 7.512 14.702 1.834l23.949-35.924h-33.133c-5.81.001-11.382 1.007-16.565 2.839z" fill="#edf6ff"/><path d="m123.467 173.167h-33.134l23.949 35.924c3.785 5.678 12.428 4.6 14.702-1.834l11.047-31.251c-5.182-1.833-10.754-2.839-16.564-2.839z" fill="#edf6ff"/><path d="m115.183 24.067h-49.7c-18.299 0-33.133 14.834-33.133 33.133v24.85c0 4.575 3.709 8.283 8.283 8.283 12.146 0 22.764-6.536 28.532-16.281.923-1.56 2.566-2.552 4.379-2.552h.446c1.813 0 3.455.992 4.379 2.552 5.768 9.746 16.386 16.282 28.532 16.282h33.133c4.575 0 8.283-3.709 8.283-8.283v-24.851c0-18.299-14.835-33.133-33.134-33.133z" fill="#d2a677"/><path d="m115.183 24.067h-23c18.299 0 33.133 14.834 33.133 33.133v24.85c0 4.575-3.709 8.283-8.283 8.283h23c4.575 0 8.283-3.709 8.283-8.283v-24.85c.001-18.299-14.834-33.133-33.133-33.133z" fill="#af8766"/></g></g><g><path d="m459.999 165.914c.599-.543 1.194-1.092 1.774-1.663 11.023-10.841 17.095-25.325 17.095-40.784v-27.533c4.929-2.673 8.283-7.894 8.283-13.884v-24.85c0-22.405-18.228-40.633-40.634-40.633h-49.7c-22.405 0-40.633 18.228-40.633 40.633v24.85c0 5.99 3.354 11.211 8.283 13.884v26.715c0 17.095 7.454 32.572 19.224 43.237-22.99 1.938-42.141 17.523-49.314 38.61-9.542-12.328-23.993-20.66-40.401-22.043 11.771-10.665 19.225-26.142 19.225-43.238v-24.815h.783c8.703 0 15.783-7.08 15.783-15.783v-8.283c0-22.97-13.617-42.808-33.195-51.901-1.148-21.386-18.905-38.433-40.572-38.433s-39.424 17.047-40.571 38.433c-19.579 9.092-33.195 28.931-33.195 51.901v8.283c0 8.703 7.08 15.783 15.783 15.783h.783v25.633c0 15.46 6.071 29.944 17.095 40.785.58.57 1.175 1.12 1.774 1.663-16.261 1.473-30.572 9.777-40.045 22.016-7.136-20.979-26.126-36.515-48.958-38.583.599-.542 1.193-1.092 1.773-1.662 11.023-10.841 17.095-25.325 17.095-40.785v-27.533c4.929-2.673 8.283-7.894 8.283-13.884v-24.85c0-22.405-18.228-40.633-40.633-40.633h-49.7c-22.405 0-40.634 18.228-40.634 40.633v24.85c0 5.99 3.354 11.211 8.283 13.884v26.715c0 17.095 7.454 32.572 19.224 43.238-29.28 2.468-52.357 27.072-52.357 56.98v49.7c0 13.271 10.796 24.066 24.066 24.066h42.2v67.05c0 8.703 7.08 15.784 15.783 15.784h42.983c4.143 0 7.5-3.358 7.5-7.5s-3.357-7.5-7.5-7.5h-42.982c-.432 0-.783-.352-.783-.784v-67.05h18.133v33.917c0 8.703 7.08 15.784 15.783 15.784h115.967c8.703 0 15.783-7.081 15.783-15.784v-33.917h18.133v33.917c0 8.703 7.08 15.784 15.783 15.784h76.117c4.143 0 7.5-3.358 7.5-7.5s-3.357-7.5-7.5-7.5h-76.116c-.432 0-.783-.352-.783-.784v-33.917h50.483c4.251 0 8.107-1.697 10.948-4.44 3.93 2.792 8.726 4.44 13.902 4.44h42.2v33.917c0 .432-.352.784-.783.784h-9.85c-4.143 0-7.5 3.358-7.5 7.5s3.357 7.5 7.5 7.5h9.85c8.703 0 15.783-7.081 15.783-15.784v-33.917h18.134v67.05c0 .432-.352.784-.783.784h-149.101c-8.703 0-15.783 7.081-15.783 15.783v18.076c-2.954-.473-5.981-.726-9.066-.726s-6.112.253-9.066.726v-18.076c0-8.703-7.08-15.783-15.783-15.783h-76.152c-4.143 0-7.5 3.358-7.5 7.5s3.357 7.5 7.5 7.5h76.15c.432 0 .783.352.783.783v22.678c-19.546 9.105-33.134 28.926-33.134 51.872 0 31.54 25.66 57.2 57.2 57.2s57.2-25.66 57.2-57.2c0-22.946-13.588-42.767-33.134-51.872v-22.678c0-.432.352-.783.783-.783h149.102c8.703 0 15.783-7.081 15.783-15.784v-67.05h42.2c13.271 0 24.066-10.796 24.066-24.066v-49.7c.001-29.787-22.889-54.317-52-56.953zm-161.799 288.886c0 23.269-18.931 42.2-42.2 42.2s-42.2-18.931-42.2-42.2 18.931-42.2 42.2-42.2 42.2 18.931 42.2 42.2zm113.224-224.433h20.485l6.536 38.13c.007.267-.123.518-.349.669l-15.995 10.664c-.264.176-.605.176-.869 0l-15.996-10.664c-.226-.151-.355-.402-.349-.669zm21.404-15h-22.322l-2.653-7.959 13.814-20.721 13.814 20.721zm-41.35-10.437c-.087.131-.273.399-.749.344-.48-.06-.589-.369-.642-.517l-8.321-23.541c2.205-.357 4.464-.55 6.768-.55h19.12zm44.203-24.263h19.119c2.304 0 4.564.193 6.769.55l-8.321 23.54c-.053.148-.161.457-.642.517-.484.055-.662-.212-.749-.343zm-64.497-123.467c0-14.134 11.499-25.633 25.633-25.633h49.7c14.135 0 25.634 11.499 25.634 25.633v24.85c0 .432-.352.784-.783.784-12.145 0-22.71-8.622-25.121-20.499-1.485-7.321-7.986-12.634-15.458-12.634h-18.243c-7.472 0-13.973 5.313-15.458 12.634-2.41 11.878-12.975 20.5-25.12 20.5-.432 0-.783-.352-.783-.784v-24.851zm8.283 65.449v-25.524c15.962-3.016 29.004-15.465 32.321-31.808.072-.357.391-.617.757-.617h18.243c.366 0 .685.259.758.618 3.317 16.342 16.359 28.791 32.321 31.807v26.342c0 11.405-4.479 22.091-12.612 30.089-7.953 7.822-18.426 12.105-29.565 12.11h-.054c-.005 0-.01 0-.015 0h-.007c-.223 0-.447-.002-.672-.006-22.869-.381-41.475-19.676-41.475-43.011zm-153.656 98.848c-.087.131-.263.405-.749.343-.48-.06-.59-.368-.642-.516l-8.321-23.54c2.205-.357 4.464-.55 6.769-.55h19.119zm15.791 3.354 14.398-21.597 14.398 21.597-4.733 56.782h-19.33zm28.412-27.618h19.119c2.304 0 4.563.193 6.768.55l-8.321 23.54c-.052.148-.161.457-.642.517-.484.059-.662-.212-.749-.343zm-14.014-182.233c11.738 0 21.651 7.934 24.677 18.719-2.651-.378-5.357-.585-8.111-.585h-33.133c-2.754 0-5.46.207-8.111.585 3.027-10.785 12.94-18.719 24.678-18.719zm-58.767 83.617v-8.283c0-23.269 18.931-42.2 42.2-42.2h33.133c23.27 0 42.2 18.931 42.2 42.2v8.283c0 .432-.352.783-.783.783h-24.851c-14.134 0-25.633-11.499-25.633-25.633 0-4.142-3.357-7.5-7.5-7.5s-7.5 3.358-7.5 7.5c0 14.134-11.499 25.633-25.633 25.633h-24.851c-.43 0-.782-.352-.782-.783zm16.567 41.416v-25.633h9.067c13.657 0 25.762-6.772 33.133-17.136 7.371 10.364 19.476 17.136 33.133 17.136h9.067v24.815c0 23.335-18.606 42.63-41.476 43.012-11.455.186-22.183-4.108-30.313-12.104-8.132-7.998-12.611-18.684-12.611-30.09zm-11.838 62.766 8.315 23.525c2.005 5.671 6.959 9.657 12.928 10.401.667.083 1.331.124 1.989.124.791 0 1.572-.066 2.341-.181l3.747 44.966h-49.832c-.432 0-.783-.352-.783-.783v-8.283-33.134c0-15.666 8.587-29.355 21.295-36.635zm-36.295 20.068v16.566 33.134c0 4.999-4.067 9.066-9.067 9.066h-41.497c4.994-3.339 7.633-9.113 6.889-15.076-.015-.113-.031-.226-.05-.338l-7.331-42.767 1.351-4.052c1.644.573 3.389.881 5.178.881.659 0 1.324-.041 1.99-.124 5.969-.745 10.922-4.731 12.927-10.402l8.316-23.525c12.707 7.281 21.294 20.971 21.294 36.637zm-64.173-7.5h-22.322l-2.653-7.959 13.814-20.721 13.814 20.721zm-21.403 15h20.485l6.536 38.13c.007.268-.123.518-.349.669l-15.995 10.664c-.264.176-.605.176-.869 0l-15.995-10.664c-.226-.151-.355-.402-.349-.669zm24.256-49.7h19.12c2.304 0 4.563.193 6.768.55l-8.321 23.541c-.053.148-.161.457-.642.517-.485.056-.663-.212-.749-.343zm-44.203 24.264c-.088.131-.262.402-.749.343-.48-.06-.589-.369-.642-.517l-8.321-23.54c2.205-.357 4.464-.55 6.769-.55h19.119zm-20.294-147.731c0-14.134 11.499-25.633 25.634-25.633h49.7c14.134 0 25.633 11.499 25.633 25.633v24.85c0 .432-.352.784-.783.784h-33.134c-14.135 0-25.634-11.499-25.634-25.633 0-4.142-3.357-7.5-7.5-7.5s-7.5 3.358-7.5 7.5c0 14.134-11.499 25.633-25.634 25.633-.432 0-.783-.352-.783-.784v-24.85zm8.283 65.449v-25.521c10.536-1.975 19.646-8.025 25.634-16.451 7.37 10.371 19.471 17.157 33.134 17.157h25.633v25.633c0 11.405-4.48 22.091-12.612 30.09-8.13 7.996-18.855 12.276-30.312 12.104-22.871-.382-41.477-19.677-41.477-43.012zm-33.133 149.918v-49.7c0-15.666 8.587-29.355 21.295-36.635l8.316 23.524c2.005 5.671 6.958 9.657 12.928 10.402.666.083 1.331.124 1.989.124 1.788 0 3.533-.308 5.178-.881l1.351 4.053-7.331 42.767c-.019.112-.035.225-.05.338-.744 5.963 1.895 11.737 6.889 15.076h-41.499c-4.999-.002-9.066-4.069-9.066-9.068zm216.15 58.766h-115.966c-.432 0-.783-.352-.783-.784v-33.917h42.199c5.177 0 9.973-1.648 13.902-4.44 2.841 2.743 6.697 4.44 10.948 4.44h50.483v33.917c.001.433-.351.784-.783.784zm100.183-50.483c0 .432-.352.783-.783.783h-49.833l3.747-44.966c.769.115 1.551.181 2.341.181.658 0 1.322-.041 1.989-.124 5.969-.745 10.923-4.73 12.928-10.402l8.315-23.524c12.708 7.28 21.295 20.969 21.295 36.635v33.134 8.283zm15-8.283v-33.134-16.566c0-15.666 8.587-29.355 21.296-36.636l8.316 23.525c2.005 5.671 6.958 9.657 12.927 10.402.667.083 1.331.124 1.99.124 1.788 0 3.533-.308 5.177-.881l1.351 4.052-7.331 42.767c-.019.112-.035.225-.05.338-.744 5.963 1.895 11.737 6.889 15.076h-41.498c-5-.001-9.067-4.068-9.067-9.067zm150.667 0c0 4.999-4.067 9.066-9.066 9.066h-41.498c4.994-3.339 7.633-9.113 6.889-15.076-.015-.113-.031-.226-.05-.338l-7.331-42.767 1.351-4.053c1.644.573 3.39.881 5.178.881.658 0 1.323-.04 1.989-.124 5.97-.745 10.923-4.731 12.928-10.402l8.316-23.524c12.708 7.28 21.295 20.969 21.295 36.635v49.702z"/><path d="m405.1 118.542c4.143 0 7.5-3.358 7.5-7.5v-4.142c0-4.142-3.357-7.5-7.5-7.5s-7.5 3.358-7.5 7.5v4.142c0 4.142 3.357 7.5 7.5 7.5z"/><path d="m438.233 118.542c4.143 0 7.5-3.358 7.5-7.5v-4.142c0-4.142-3.357-7.5-7.5-7.5s-7.5 3.358-7.5 7.5v4.142c0 4.142 3.358 7.5 7.5 7.5z"/><path d="m239.434 135.108c4.143 0 7.5-3.358 7.5-7.5v-4.142c0-4.142-3.357-7.5-7.5-7.5s-7.5 3.358-7.5 7.5v4.142c0 4.143 3.357 7.5 7.5 7.5z"/><path d="m272.566 135.108c4.143 0 7.5-3.358 7.5-7.5v-4.142c0-4.142-3.357-7.5-7.5-7.5s-7.5 3.358-7.5 7.5v4.142c0 4.143 3.358 7.5 7.5 7.5z"/><path d="m73.767 118.542c4.143 0 7.5-3.358 7.5-7.5v-4.142c0-4.142-3.357-7.5-7.5-7.5s-7.5 3.358-7.5 7.5v4.142c0 4.142 3.357 7.5 7.5 7.5z"/><path d="m106.9 118.542c4.143 0 7.5-3.358 7.5-7.5v-4.142c0-4.142-3.357-7.5-7.5-7.5s-7.5 3.358-7.5 7.5v4.142c0 4.142 3.358 7.5 7.5 7.5z"/><path d="m231.934 454.8c0 13.271 10.796 24.067 24.066 24.067 13.271 0 24.066-10.796 24.066-24.067s-10.795-24.067-24.066-24.067c-13.27 0-24.066 10.796-24.066 24.067zm33.132 0c0 4.999-4.067 9.067-9.066 9.067s-9.066-4.067-9.066-9.067c0-4.999 4.067-9.066 9.066-9.066s9.066 4.067 9.066 9.066z"/></g></g></svg>