<svg id="_x33_0" enable-background="new 0 0 64 64" height="512" viewBox="0 0 64 64" width="512" xmlns="http://www.w3.org/2000/svg"><g><g><g><path d="m60 12h-26.08c0 1.09-.88 1.98-1.97 2-.01 0-.02 0-.03 0-1.11 0-2-.9-2-2h-25.92c-1.1 0-2 .9-2 2v34c0 1.1.9 2 2 2h28 6.32c-.21-1.11-.32-2.25-.32-3.4v-5.6-17h20v18 2c0-.55.22-1.05.59-1.41.36-.37.86-.59 1.41-.59 1.1 0 2 .9 2 2v-30c0-1.1-.9-2-2-2z" fill="#aab2bd"/></g><g><path d="m31.92 10c1.1 0 2 .9 2 2 0 1.09-.88 1.98-1.97 2-.01 0-.02 0-.03 0-1.11 0-2-.9-2-2s.89-2 2-2z" fill="#ff826e"/></g><g><path d="m54 16h4v4h-4z" fill="#ff826e"/></g><g><path d="m46 16h4v4h-4z" fill="#ff826e"/></g><g><path d="m38 16h4v4h-4z" fill="#ff826e"/></g><g><path d="m58 24v18c0-1.1-.9-2-2-2-.55 0-1.05.22-1.41.59-.37.36-.59.86-.59 1.41v-2c0-.55-.22-1.05-.59-1.41-.36-.37-.86-.59-1.41-.59-1.1 0-2 .9-2 2v-6c0-1.1-.9-2-2-2-.55 0-1.05.22-1.41.59-.37.36-.59.86-.59 1.41v13c0 1.1-.9 2-2 2-.55 0-1.05-.22-1.41-.59-.37-.36-.59-.86-.59-1.41v-4c0-1.66-1.34-3-3-3-.55 0-1 .45-1 1v-17z" fill="#69d6f4"/></g><g><path d="m42 58h17v4h-17z" fill="#b4dd7f"/></g><g><path d="m58 44c0-.55.22-1.05.59-1.41.36-.37.86-.59 1.41-.59 1.1 0 2 .9 2 2v3.17c0 1.91-.26 3.79-.76 5.62-.51 1.82-1.26 3.57-2.24 5.21h-17c-1.87-2.34-3.13-5.09-3.68-8-.21-1.11-.32-2.25-.32-3.4v-5.6c0-.55.45-1 1-1 1.66 0 3 1.34 3 3v4c0 .55.22 1.05.59 1.41.36.37.86.59 1.41.59 1.1 0 2-.9 2-2v-13c0-.55.22-1.05.59-1.41.36-.37.86-.59 1.41-.59 1.1 0 2 .9 2 2v6c0-1.1.9-2 2-2 .55 0 1.05.22 1.41.59.37.36.59.86.59 1.41v2c0-.55.22-1.05.59-1.41.36-.37.86-.59 1.41-.59 1.1 0 2 .9 2 2z" fill="#f0d0b4"/></g><g><path d="m26 16v22c0-1.76-1.21-3.29-2.92-3.69l-2.9-.69c-1.07-.3-1.86-1.16-2.1-2.2v-.01c.88-.53 1.53-1.39 1.79-2.41l1.66-3.12c.31-.58.47-1.22.47-1.88 0-2.21-1.79-4-4-4h-4c-1.1 0-2.1.45-2.83 1.17-.72.73-1.17 1.73-1.17 2.83 0 .66.16 1.3.47 1.88l1.66 3.12c.18.7.55 1.33 1.04 1.83.23.22.48.42.75.58v.01c-.24 1.04-1.03 1.9-2.1 2.2l-2.9.69c-1.71.4-2.92 1.93-2.92 3.69v-22z" fill="#e6e9ed"/></g><g><path d="m21.53 25.88-1.66 3.12c.09-.32.13-.65.13-1v-.76c0-.76-.43-1.45-1.11-1.79l-2.89-1.45-2.89 1.45c-.68.34-1.11 1.03-1.11 1.79v.76c0 .35.04.68.13 1l-1.66-3.12c-.31-.58-.47-1.22-.47-1.88 0-1.1.45-2.1 1.17-2.83.73-.72 1.73-1.17 2.83-1.17h4c2.21 0 4 1.79 4 4 0 .66-.16 1.3-.47 1.88z" fill="#656d78"/></g><g><path d="m18.08 31.42c.24 1.04 1.03 1.9 2.1 2.2l2.9.69c1.71.4 2.92 1.93 2.92 3.69h-20c0-1.76 1.21-3.29 2.92-3.69l2.9-.69c1.07-.3 1.86-1.16 2.1-2.2v-.01c.61.38 1.32.59 2.08.59s1.47-.21 2.08-.59z" fill="#f0d0b4"/></g><g><path d="m20 27.24v.76c0 .35-.04.68-.13 1-.26 1.02-.91 1.88-1.79 2.41-.61.38-1.32.59-2.08.59s-1.47-.21-2.08-.59c-.27-.16-.52-.36-.75-.58-.49-.5-.86-1.13-1.04-1.83-.09-.32-.13-.65-.13-1v-.76c0-.76.43-1.45 1.11-1.79l2.89-1.45 2.89 1.45c.68.34 1.11 1.03 1.11 1.79z" fill="#f0d0b4"/></g></g><g><path d="m26.302 7.284 1.396 1.432c2.345-2.287 6.159-2.287 8.503 0l1.396-1.432c-3.113-3.038-8.18-3.038-11.295 0z"/><path d="m5 39h22v-24h-22zm6.351-13.589c-.229-.432-.351-.919-.351-1.409 0-1.655 1.347-3.002 3.002-3.002h3.995c1.656 0 3.003 1.347 3.003 3.002 0 .49-.122.978-.351 1.409l-.115.217c-.286-.45-.691-.825-1.192-1.076l-3.342-1.67-3.342 1.671c-.5.25-.906.625-1.192 1.076zm1.649 2.589v-.764c0-.381.212-.724.553-.895l2.447-1.223 2.447 1.224c.341.171.553.513.553.894v.764c0 1.654-1.346 3-3 3s-3-1.346-3-3zm1.46 4.732c.488.16.999.268 1.54.268s1.052-.108 1.54-.268c.514.887 1.36 1.564 2.405 1.863l2.905.688c.923.218 1.639.874 1.961 1.717h-17.622c.322-.843 1.037-1.499 1.961-1.718l2.95-.699c1.012-.29 1.849-.964 2.36-1.851zm10.54-15.732v17.118c-.497-.357-1.061-.633-1.689-.781l-2.86-.676c-.502-.144-.914-.48-1.171-.918.686-.602 1.198-1.382 1.474-2.275l.002.001 1.658-3.119c.383-.719.586-1.532.586-2.348 0-2.758-2.244-5.002-5.002-5.002h-3.995c-2.759 0-5.003 2.244-5.003 5.002 0 .816.203 1.629.585 2.349l1.658 3.119.002-.001c.277.893.789 1.673 1.475 2.275-.254.436-.657.77-1.127.906l-2.904.687c-.627.147-1.191.424-1.689.781v-17.118z"/><path d="m5 41h2v2h-2z"/><path d="m9 41h2v2h-2z"/><path d="m13 41h2v2h-2z"/><path d="m17 41h2v2h-2z"/><path d="m21 41h2v2h-2z"/><path d="m25 41h2v2h-2z"/><path d="m5 45h2v2h-2z"/><path d="m9 45h2v2h-2z"/><path d="m13 45h2v2h-2z"/><path d="m17 45h2v2h-2z"/><path d="m21 45h2v2h-2z"/><path d="m25 45h2v2h-2z"/><path d="m39.329 5.741 1.342-1.482c-4.781-4.328-12.561-4.328-17.342 0l1.342 1.482c4.042-3.658 10.616-3.658 14.658 0z"/><path d="m43 15h-6v6h6zm-2 4h-2v-2h2z"/><path d="m51 15h-6v6h6zm-2 4h-2v-2h2z"/><path d="m59 15h-6v6h6zm-2 4h-2v-2h2z"/><path d="m60 11h-25.267c-.414-1.161-1.514-2-2.816-2s-2.402.839-2.816 2h-25.101c-1.654 0-3 1.346-3 3v34c0 1.654 1.346 3 3 3h33.524c.626 2.654 1.801 5.17 3.476 7.346v4.654h19v-4.727c1.963-3.369 3-7.202 3-11.104v-33.169c0-1.654-1.346-3-3-3zm-28.083 0c.551 0 1 .448 1 1s-.449 1-1 1-1-.448-1-1 .449-1 1-1zm-28.917 37v-34c0-.552.449-1 1-1h25.102c.306.858.986 1.53 1.849 1.826l.048 34.174h-26.999c-.551 0-1-.448-1-1zm29.999 1-.048-34.195c.832-.308 1.484-.969 1.782-1.805h25.267c.551 0 1 .448 1 1v27.184c-.314-.112-.648-.184-1-.184s-.686.072-1 .184v-18.184h-22v23.597c0 .806.067 1.608.168 2.403zm21.885-9.78c-.345-1.275-1.501-2.22-2.884-2.22-.352 0-.686.072-1 .184v-3.184c0-1.654-1.346-3-3-3s-3 1.346-3 3v13c0 .552-.449 1-1 1s-1-.448-1-1v-4c0-2.206-1.794-4-4-4v-14h18v14.184c-.314-.112-.648-.184-1-.184-.395 0-.77.081-1.116.22zm-11.884 21.78v-2h15v2zm18-13.831c0 3.448-.9 6.832-2.588 9.831h-15.906c-2.257-2.984-3.506-6.655-3.506-10.403v-5.597c1.103 0 2 .897 2 2v4c0 1.654 1.346 3 3 3s3-1.346 3-3v-13c0-.552.449-1 1-1s1 .448 1 1v14h2v-8c0-.552.449-1 1-1s1 .448 1 1v8h2v-6c0-.552.449-1 1-1s1 .448 1 1v6h2v-4c0-.552.449-1 1-1s1 .448 1 1z"/><path d="m48 27c-3.433 0-6.336 2.454-6.903 5.835l1.973.33c.404-2.413 2.478-4.165 4.93-4.165s4.526 1.752 4.931 4.165l1.973-.33c-.568-3.381-3.471-5.835-6.904-5.835z"/></g></g></svg>